# xmcd
#
# Track frame offsets:
#	150
#	21304
#	26371
#	41780
#	49560
#	63291
#	75968
#	87289
#	100234
#	108661
#	116167
#	135580
#	150568
#	163688
#	183923
#	201763
#	215620
#	241023
#	250638
#	258754
#
# Disc length: 3865 seconds
#
# Revision: 1
# Processed by: cddbd v1.5.2PL0 Copyright (c) Steve Scherf et al.
# Submitted via: EasyCDDAExtractor 16.0.6.1
#
DISCID=fd0f1714
DTITLE=Микаэл Таривердиев - Воспоминание о Венеции
DYEAR=2003
DGENRE=Instrumental
TTITLE0=Музыка на воде
TTITLE1=Обещание любви 
TTITLE2=Полет
TTITLE3=ДАЛЕКИЙ ПАРУСНИК 
TTITLE4=Восход над морем
TTITLE5=Старинные часы
TTITLE6=Одинокий саксофон 
TTITLE7=Влюбленные 
TTITLE8=На ступенях собора
TTITLE9=Видение марии
TTITLE10=Белая маска
TTITLE11=Пары на веранде
TTITLE12=Заброшенный сад 
TTITLE13=Смерть в Венеции
TTITLE14=Медленная карусель
TTITLE15=Конец праздника
TTITLE16=Птицы над городом
TTITLE17=Уличный мызыкант
TTITLE18=Последнее кафе
TTITLE19=Âîñïîìèíàíèå î Âåíåöèè
EXTD=
EXTT0=
EXTT1=
EXTT2=
EXTT3=
EXTT4=
EXTT5=
EXTT6=
EXTT7=
EXTT8=
EXTT9=
EXTT10=
EXTT11=
EXTT12=
EXTT13=
EXTT14=
EXTT15=
EXTT16=
EXTT17=
EXTT18=
EXTT19=
PLAYORDER=
